<svg xmlns="http://www.w3.org/2000/svg" viewBox="0 0 250 250" width="250" height="250" isolation="isolate"><style>.a{fill:rgb(255,255,255);}.b{stop-color:rgb(255,255,255);}</style><defs><clipPath><rect width="250" height="250"/></clipPath></defs><g clip-path="url(#_clipPath_ZRpEEnVjr7eP0V3WVu7i9dobmA043Fqf)"><clipPath><rect width="250" height="250" transform="matrix(1 0 0 1 0 0)" class="a"/></clipPath><g clip-path="url(#_clipPath_tLJRGYzqVWrfG1KEiikgG7N9WS4tun0Y)"><path d="M39 220.8C41.6 212 48.6 208.6 56 208.8 63.4 209 73 214.5 71 227.8 69.6 237.1 58.5 237.9 45 236.8 32.9 235.8 19.8 224.5 20 211.8 20.1 200.9 38.2 181.5 61 180.8 62.5 180.8 69.5 159 71 153.8 74.2 142.3 67.6 129.1 54 128.8 59.4 124.8 66.5 125.3 71 126.8 74.5 128 78.2 130.2 80 132.8 81.7 126.9 90.1 102 93 93.8 95.9 85.6 94.4 74.7 92 70.8Q89.9 67.4 112 56.8L129 70.8Q153.1 124.5 155 128.8C155.5 130 164.4 123.1 170 122.8 175.7 122.5 180.4 122.8 183 126.8 176.2 126.5 170 129.5 166 136.8 159.4 149.1 169.7 165.7 181 186.8 184.6 193.5 199.6 214.2 218 214.8 229.2 215.1 231.5 213.1 235 210.8 230.1 220.2 224.4 225.7 215 228.8 202 233 179.7 227 174 220.8 168.3 214.6 160.2 218.8 149 215.8 143.2 214.3 139.7 209.3 138 205.8 144.6 207.9 151.4 205.2 153 200.8Q155.1 195.2 114 93.8L83 183.8Q97.8 187.3 109 189.8C112.9 190.7 117.1 190.9 121 189.8 112.6 198.8 98.1 203.4 95 206.8 91.9 210.2 88.5 216.2 87 221.8 82.3 213 74.3 205.4 67 202.8 55.1 198.6 27.8 206.2 28 218.8 28.2 228.6 53 227.9 55 221.8 56.8 216.3 48.9 210.8 39 220.8Z" class="a"/><path d="M113 12.8L103 30.8 105 34.8Q101.8 33.8 99 34.8C95.4 36.2 89.2 44.8 101 48.8 100.3 47.6 99 45.1 101 43.8 103.8 41.9 107 46 107 49.8 104.4 49.5 104.3 53.8 106 53.8 104.8 54.8 105.1 55.5 103 55.8 97.4 56.6 95.4 51 95 49.8 95.5 49.1 95.9 47.1 95 45.8 94.1 44.5 92.5 44.3 91 44.8 89.1 45.4 88.5 47.4 89 48.8 89.6 50.5 91.1 51 92 50.8 92.2 52.8 91.2 59.8 89 60.8 85.6 62.3 81.3 59.6 83 52.8 83.3 51.5 86.1 51.8 87 54.8 88 52.5 89 47.5 86 44.8 83.5 42.6 80.4 40.9 77 42.8 75.2 43.8 74 49.7 74 49.8 72.9 47.1 71.7 45.3 70 44.8 63.1 42.7 58.3 47.4 57 49.8 55.7 52.2 55.9 56.7 57 59.8 59.1 57.7 60.7 56.6 63 55.8 65.7 54.9 75.3 59.3 80 65.8 80.3 67.1 81.6 67.9 82 68.8 82.1 69.5 82.2 70.3 82 71.8 81.6 74.7 82.3 76.3 83 76.8 84 77.5 85 78.1 85 79.8 85 81.4 83.4 84.7 85 87.8 86.1 90 87.8 91.3 88 90.8 80.8 73.6 131.9 69.5 136 81.8 136.3 82.5 136.3 83.7 137 83.8 142.1 84.5 140.7 81.1 141 80.8 142.2 80.8 142.1 79 142 77.8 146.6 76.2 143.8 70.3 144 69.8 151.2 60.6 157.5 56.5 162 54.8 166.5 53.1 170.9 56.5 172 57.8 172.6 55.8 172.3 51.9 172 50.8 170.5 45.5 166.9 42.9 165 42.8 159.9 42.4 155.9 46.3 154 48.8 153.4 46.1 153.2 44.8 152 43.8 149.1 41.3 144.6 40.6 140 43.8 137.7 45.4 138.3 51 141 54.8 141.2 53.1 141.4 51.2 143 50.8 146.3 50 145.6 58.3 145 59.8 144.4 61.2 142.9 61.8 141 61.8 136.1 61.8 134.7 56 135 49.8 136.5 50.1 138 48.8 138 46.8 138 45.2 137.7 44.5 136 43.8 134.5 43.1 132.4 44.5 132 45.8 131.7 46.8 132 48.2 133 48.8 131.5 51.1 128.5 53.6 126 54.8 123.8 55.9 122 54.9 121 53.8 121.9 53.8 122.1 49.8 120 49.8 119.8 46.9 122.2 40.1 126 43.8 126.5 44.3 126.8 45.6 125.8 47.8 129.1 47 130.4 44.6 131 41.8 131.6 39 130.2 34.8 128 33.8 125.8 32.8 122.2 33.7 121 34.8Q121.7 33.5 122.9 30.8L113 12.8 113 12.8Z" class="a"/><path d="M165 152.8L167 151.8 195 157.8 195 160.8 167 167.8 165 165.8 165 152.8 165 152.8Z" class="a"/><radialGradient fx="0.3414244721858193" fy="0.051438663756949055" cx="0.5" cy="0.5" r="86.7" gradientTransform="matrix(43.353,0,0,14.025,191.647,151.799)" gradientUnits="userSpaceOnUse"><stop offset="0%" class="b"/><stop offset="63.04347826086957%" class="b"/></radialGradient><path d="M191.9 156.8C194 154.7 201.1 151.5 206.9 151.8 218.5 152.4 223.2 159 226.9 159.8 229.7 160.4 233.9 159.3 234.9 156.8 235.6 159.4 232.1 162.3 229.9 161.8 226.5 161.1 214.6 165.6 206.9 165.8 198.3 166.1 190 158.7 191.9 156.8Z" fill="url(#_rgradient_0)"/><path d="M158 151.8L158 166.8Q52.6 168 27 165.8C15.6 162.9 15 162.4 15 161.8 15 161.2 15.5 161.1 27 158.8Q55.2 156 158 151.8Z" class="a"/></g></g></svg>